<svg width="141" height="38" viewBox="0 0 141 38" fill="none" xmlns="http://www.w3.org/2000/svg">
<path d="M121.632 0H3C1.35 0 0 1.35 0 3V35C0 36.65 1.35 38 3 38H121.632L141 19L121.632 0Z" fill="#EE3643"/>
<path d="M34.1013 23.13H36.4643V16.415L36.7193 15.259L35.9033 16.262L34.3903 17.299L33.4553 16.024L37.3313 12.896H38.5723V23.13H40.8843V25H34.1013V23.13ZM50.1048 16.007C50.1048 16.585 49.9971 17.1687 49.7818 17.758C49.5778 18.3473 49.3115 18.9253 48.9828 19.492C48.6655 20.0587 48.3085 20.6083 47.9118 21.141C47.5265 21.6623 47.1468 22.144 46.7728 22.586L45.8718 23.283V23.368L47.0958 23.13H50.3598V25H43.2028V23.861C43.4748 23.5777 43.7808 23.249 44.1208 22.875C44.4608 22.4897 44.8008 22.0873 45.1408 21.668C45.4921 21.2373 45.8321 20.7953 46.1608 20.342C46.4895 19.8887 46.7841 19.4353 47.0448 18.982C47.3055 18.5173 47.5095 18.0697 47.6568 17.639C47.8155 17.2083 47.8948 16.8003 47.8948 16.415C47.8948 15.9503 47.7588 15.5707 47.4868 15.276C47.2261 14.97 46.8068 14.817 46.2288 14.817C45.8661 14.817 45.4921 14.8963 45.1068 15.055C44.7328 15.2023 44.4155 15.395 44.1548 15.633L43.2708 14.069C43.7128 13.7063 44.2115 13.4173 44.7668 13.202C45.3335 12.9753 45.9965 12.862 46.7558 12.862C47.2431 12.862 47.6908 12.93 48.0988 13.066C48.5068 13.202 48.8581 13.4003 49.1528 13.661C49.4475 13.9217 49.6798 14.2503 49.8498 14.647C50.0198 15.0323 50.1048 15.4857 50.1048 16.007ZM55.4153 23.283C56.1633 23.283 56.7356 23.1017 57.1323 22.739C57.529 22.3763 57.7273 21.8777 57.7273 21.243C57.7273 20.563 57.495 20.0643 57.0303 19.747C56.5656 19.4297 55.9026 19.271 55.0413 19.271L53.6983 19.322V13.1H59.5463V15.174H55.6023V17.469L56.2993 17.401C56.8546 17.4237 57.3533 17.5257 57.7953 17.707C58.2486 17.8883 58.634 18.1433 58.9513 18.472C59.2686 18.7893 59.5123 19.1803 59.6823 19.645C59.8523 20.0983 59.9373 20.6083 59.9373 21.175C59.9373 21.8437 59.824 22.433 59.5973 22.943C59.3706 23.453 59.0533 23.878 58.6453 24.218C58.2486 24.558 57.7783 24.813 57.2343 24.983C56.6903 25.153 56.0953 25.238 55.4493 25.238C54.9393 25.238 54.452 25.1927 53.9873 25.102C53.534 25.0227 53.1486 24.9093 52.8313 24.762L53.4263 22.926C53.687 23.0393 53.9703 23.13 54.2763 23.198C54.5936 23.2547 54.9733 23.283 55.4153 23.283ZM62.0008 19.033C62.0008 16.9477 62.3578 15.4007 63.0718 14.392C63.7858 13.372 64.8115 12.862 66.1488 12.862C67.5768 12.862 68.6251 13.3663 69.2938 14.375C69.9625 15.3723 70.2968 16.925 70.2968 19.033C70.2968 21.1297 69.9341 22.688 69.2088 23.708C68.4948 24.728 67.4691 25.238 66.1318 25.238C64.7151 25.238 63.6725 24.7053 63.0038 23.64C62.3351 22.5633 62.0008 21.0277 62.0008 19.033ZM64.2108 19.033C64.2108 20.4157 64.3581 21.4867 64.6528 22.246C64.9588 22.994 65.4575 23.368 66.1488 23.368C66.8175 23.368 67.3048 23.0223 67.6108 22.331C67.9281 21.6397 68.0868 20.5403 68.0868 19.033C68.0868 17.6617 67.9395 16.602 67.6448 15.854C67.3501 15.106 66.8458 14.732 66.1318 14.732C65.4518 14.732 64.9588 15.0833 64.6528 15.786C64.3581 16.4887 64.2108 17.571 64.2108 19.033ZM71.6463 19.033C71.6463 16.9477 72.0033 15.4007 72.7173 14.392C73.4313 13.372 74.457 12.862 75.7943 12.862C77.2223 12.862 78.2706 13.3663 78.9393 14.375C79.608 15.3723 79.9423 16.925 79.9423 19.033C79.9423 21.1297 79.5796 22.688 78.8543 23.708C78.1403 24.728 77.1146 25.238 75.7773 25.238C74.3606 25.238 73.318 24.7053 72.6493 23.64C71.9806 22.5633 71.6463 21.0277 71.6463 19.033ZM73.8563 19.033C73.8563 20.4157 74.0036 21.4867 74.2983 22.246C74.6043 22.994 75.103 23.368 75.7943 23.368C76.463 23.368 76.9503 23.0223 77.2563 22.331C77.5736 21.6397 77.7323 20.5403 77.7323 19.033C77.7323 17.6617 77.585 16.602 77.2903 15.854C76.9956 15.106 76.4913 14.732 75.7773 14.732C75.0973 14.732 74.6043 15.0833 74.2983 15.786C74.0036 16.4887 73.8563 17.571 73.8563 19.033ZM85.9316 13.219C86.4076 13.1283 86.929 13.0603 87.4956 13.015C88.0736 12.9583 88.6459 12.93 89.2126 12.93C89.8019 12.93 90.3913 12.981 90.9806 13.083C91.5813 13.1737 92.1196 13.3663 92.5956 13.661C93.0716 13.9443 93.4569 14.3467 93.7516 14.868C94.0576 15.378 94.2106 16.0467 94.2106 16.874C94.2106 17.622 94.0803 18.2567 93.8196 18.778C93.5589 19.288 93.2133 19.7073 92.7826 20.036C92.3519 20.3647 91.8589 20.6027 91.3036 20.75C90.7596 20.8973 90.1929 20.971 89.6036 20.971C89.5469 20.971 89.4563 20.971 89.3316 20.971C89.2069 20.971 89.0766 20.971 88.9406 20.971C88.8046 20.9597 88.6686 20.9483 88.5326 20.937C88.4079 20.9257 88.3173 20.9143 88.2606 20.903V25H85.9316V13.219ZM89.3996 14.936C89.1729 14.936 88.9576 14.9473 88.7536 14.97C88.5496 14.9813 88.3853 14.9983 88.2606 15.021V18.88C88.3059 18.8913 88.3739 18.9027 88.4646 18.914C88.5553 18.9253 88.6516 18.9367 88.7536 18.948C88.8556 18.948 88.9519 18.948 89.0426 18.948C89.1446 18.948 89.2183 18.948 89.2636 18.948C89.5696 18.948 89.8699 18.9197 90.1646 18.863C90.4706 18.8063 90.7426 18.7043 90.9806 18.557C91.2186 18.3983 91.4056 18.183 91.5416 17.911C91.6889 17.639 91.7626 17.282 91.7626 16.84C91.7626 16.466 91.6946 16.16 91.5586 15.922C91.4226 15.6727 91.2413 15.4743 91.0146 15.327C90.7993 15.1797 90.5499 15.0777 90.2666 15.021C89.9833 14.9643 89.6943 14.936 89.3996 14.936ZM93.1461 23.878C93.1461 23.4813 93.2708 23.1697 93.5201 22.943C93.7695 22.705 94.0981 22.586 94.5061 22.586C94.9368 22.586 95.2768 22.705 95.5261 22.943C95.7755 23.1697 95.9001 23.4813 95.9001 23.878C95.9001 24.2747 95.7755 24.592 95.5261 24.83C95.2768 25.068 94.9368 25.187 94.5061 25.187C94.0981 25.187 93.7695 25.068 93.5201 24.83C93.2708 24.592 93.1461 24.2747 93.1461 23.878Z" fill="white"/>
</svg>
